HIERARCHY
ROOT hip
{
  OFFSET 0 0 0
  CHANNELS 6 Xposition Yposition Zposition Zrotation Yrotation Xrotation
  JOINT abdomen
  {
    OFFSET 0 20.6881 -0.73152
    CHANNELS 3 Zrotation Xrotation Yrotation
    JOINT chest
    {
      OFFSET 0 11.7043 -0.48768
      CHANNELS 3 Zrotation Xrotation Yrotation
      JOINT neck
      {
        OFFSET 0 22.1894 -2.19456
        CHANNELS 3 Zrotation Xrotation Yrotation
        JOINT head
        {
          OFFSET -0.24384 7.07133 1.2192
          CHANNELS 3 Zrotation Xrotation Yrotation
          JOINT leftEye
          {
            OFFSET 4.14528 8.04674 8.04672
            CHANNELS 3 Zrotation Xrotation Yrotation
            End Site
            {
              OFFSET 1 0 0
            }
          }
          JOINT rightEye
          {
            OFFSET -3.6576 8.04674 8.04672
            CHANNELS 3 Zrotation Xrotation Yrotation
            End Site
            {
              OFFSET 1 0 0
            }
          }
        }
      }
      JOINT rCollar
      {
        OFFSET -2.68224 19.2634 -4.8768
        CHANNELS 3 Zrotation Xrotation Yrotation
        JOINT rShldr
        {
          OFFSET -8.77824 -1.95073 1.46304
          CHANNELS 3 Zrotation Xrotation Yrotation
          JOINT rForeArm
          {
            OFFSET -28.1742 -1.7115 0.48768
            CHANNELS 3 Zrotation Xrotation Yrotation
            JOINT rHand
            {
              OFFSET -22.5879 0.773209 7.07136
              CHANNELS 3 Zrotation Xrotation Yrotation
              JOINT rThumb1
              {
                OFFSET -1.2192 -0.487915 3.41376
                CHANNELS 3 Zrotation Xrotation Yrotation
                JOINT rThumb2
                {
                  OFFSET -3.37035 -0.52449 3.41376
                  CHANNELS 3 Zrotation Xrotation Yrotation
                  End Site
                  {
                    OFFSET -1.78271 -1.18214 1.43049
                  }
                }
              }
              JOINT rIndex1
              {
                OFFSET -7.75947 0.938293 5.60832
                CHANNELS 3 Zrotation Xrotation Yrotation
                JOINT rIndex2
                {
                  OFFSET -2.54057 -0.884171 1.56538
                  CHANNELS 3 Zrotation Xrotation Yrotation
                  End Site
                  {
                    OFFSET -1.62519 -0.234802 1.16502
                  }
                }
              }
              JOINT rMid1
              {
                OFFSET -8.24714 1.18213 3.41376
                CHANNELS 3 Zrotation Xrotation Yrotation
                JOINT rMid2
                {
                  OFFSET -3.10165 -0.590103 1.0647
                  CHANNELS 3 Zrotation Xrotation Yrotation
                  End Site
                  {
                    OFFSET -2.48547 -0.328903 0.83742
                  }
                }
              }
              JOINT rRing1
              {
                OFFSET -8.82822 0.546677 1.51678
                CHANNELS 3 Zrotation Xrotation Yrotation
                JOINT rRing2
                {
                  OFFSET -2.60934 -0.819778 -0.0198488
                  CHANNELS 3 Zrotation Xrotation Yrotation
                  End Site
                  {
                    OFFSET -2.33842 -0.294052 0.168128
                  }
                }
              }
              JOINT rPinky1
              {
                OFFSET -8.27202 -0.0477905 -0.4584
                CHANNELS 3 Zrotation Xrotation Yrotation
                JOINT rPinky2
                {
                  OFFSET -1.82734 -0.647385 -0.700984
                  CHANNELS 3 Zrotation Xrotation Yrotation
                  End Site
                  {
                    OFFSET -1.69225 -0.51767 -0.607171
                  }
                }
              }
            }
          }
        }
      }
      JOINT lCollar
      {
        OFFSET 2.68224 19.2634 -4.8768
        CHANNELS 3 Zrotation Xrotation Yrotation
        JOINT lShldr
        {
          OFFSET 8.77824 -1.95073 1.46304
          CHANNELS 3 Zrotation Xrotation Yrotation
          JOINT lForeArm
          {
            OFFSET 28.1742 -1.7115 0.48768
            CHANNELS 3 Zrotation Xrotation Yrotation
            JOINT lHand
            {
              OFFSET 22.5879 0.773209 7.07136
              CHANNELS 3 Zrotation Xrotation Yrotation
              JOINT lThumb1
              {
                OFFSET 1.2192 -0.487915 3.41376
                CHANNELS 3 Zrotation Xrotation Yrotation
                JOINT lThumb2
                {
                  OFFSET 3.37035 -0.52449 3.41376
                  CHANNELS 3 Zrotation Xrotation Yrotation
                  End Site
                  {
                    OFFSET 1.78271 -1.18214 1.43049
                  }
                }
              }
              JOINT lIndex1
              {
                OFFSET 7.75947 0.938293 5.60832
                CHANNELS 3 Zrotation Xrotation Yrotation
                JOINT lIndex2
                {
                  OFFSET 2.54057 -0.884171 1.56538
                  CHANNELS 3 Zrotation Xrotation Yrotation
                  End Site
                  {
                    OFFSET 1.62519 -0.234802 1.16502
                  }
                }
              }
              JOINT lMid1
              {
                OFFSET 8.24714 1.18213 3.41376
                CHANNELS 3 Zrotation Xrotation Yrotation
                JOINT lMid2
                {
                  OFFSET 3.10165 -0.590103 1.0647
                  CHANNELS 3 Zrotation Xrotation Yrotation
                  End Site
                  {
                    OFFSET 2.48547 -0.328903 0.83742
                  }
                }
              }
              JOINT lRing1
              {
                OFFSET 8.82822 0.546677 1.51678
                CHANNELS 3 Zrotation Xrotation Yrotation
                JOINT lRing2
                {
                  OFFSET 2.60934 -0.819778 -0.0198488
                  CHANNELS 3 Zrotation Xrotation Yrotation
                  End Site
                  {
                    OFFSET 2.33842 -0.294052 0.168128
                  }
                }
              }
              JOINT lPinky1
              {
                OFFSET 8.27202 -0.0477905 -0.4584
                CHANNELS 3 Zrotation Xrotation Yrotation
                JOINT lPinky2
                {
                  OFFSET 1.82734 -0.647385 -0.700984
                  CHANNELS 3 Zrotation Xrotation Yrotation
                  End Site
                  {
                    OFFSET 1.69225 -0.51767 -0.607171
                  }
                }
              }
            }
          }
        }
      }
    }
  }
  JOINT rButtock
  {
    OFFSET -8.77824 4.35084 1.2192
    CHANNELS 3 Zrotation Xrotation Yrotation
    JOINT rThigh
    {
      OFFSET 0 -1.70687 -2.19456
      CHANNELS 3 Zrotation Xrotation Yrotation
      JOINT rShin
      {
        OFFSET 0 -36.8199 0.73152
        CHANNELS 3 Zrotation Xrotation Yrotation
        JOINT rFoot
        {
          OFFSET 0.73152 -45.1104 -5.12064
          CHANNELS 3 Zrotation Xrotation Yrotation
          End Site
          {
            OFFSET -1.1221 -3.69964 12.103
          }
        }
      }
    }
  }
  JOINT lButtock
  {
    OFFSET 8.77824 4.35084 1.2192
    CHANNELS 3 Zrotation Xrotation Yrotation
    JOINT lThigh
    {
      OFFSET 0 -1.70687 -2.19456
      CHANNELS 3 Zrotation Xrotation Yrotation
      JOINT lShin
      {
        OFFSET 0 -36.8199 0.73152
        CHANNELS 3 Zrotation Xrotation Yrotation
        JOINT lFoot
        {
          OFFSET -0.73152 -45.1104 -5.12064
          CHANNELS 3 Zrotation Xrotation Yrotation
          End Site
          {
            OFFSET 1.1221 -3.69964 12.103
          }
        }
      }
    }
  }
}
MOTION
Frames:	4
Frame Time:	0.00833333
6.59007 83.9933 8.14476 0.0 0.0 0.0 -1.70621 -0.00254504 -0.0464499 -0.470558 0.0024272 -0.0814843 4.3559e-14 7.95139e-16 -1.2424e-16 1.30434e-13 9.54166e-15 -2.77988e-16 -0.0 0.0 0.0 -0.0 0.0 0.0 2.18162e-14 4.13488e-17 4.96962e-17 4.5928e-13 1.21134e-15 1.19271e-15 7.87346e-12 -2.32737e-12 -9.22361e-14 9.0187e-11 2.52638e-12 -7.63333e-14 2.12727e-10 4.2558e-13 -3.72125e-13 3.67365e-10 7.34708e-13 -6.53604e-13 2.12733e-10 4.26592e-13 -3.81667e-13 7.73091 5.47488 0.417314 2.12728e-10 4.25896e-13 -3.72125e-13 2.90554 0.965183 0.102902 2.12737e-10 4.25697e-13 -3.73715e-13 10.2786 0.731801 0.0259123 2.12722e-10 4.27387e-13 -3.65764e-13 2.22167 -0.733487 -0.20892 2.16196e-14 4.03781e-17 -1.98785e-16 4.55395e-13 8.07563e-16 -7.95139e-16 7.88355e-12 2.38462e-12 -9.22361e-14 9.01746e-11 -2.20343e-12 -6.04305e-14 2.12727e-10 3.90678e-13 -3.72125e-13 3.67373e-10 6.71097e-13 -6.46448e-13 2.12721e-10 3.91208e-13 -3.62583e-13 -7.73091 5.47488 -0.417314 2.12726e-10 3.9091e-13 -3.72125e-13 -2.90554 0.965183 -0.102902 2.12717e-10 3.91009e-13 -3.66559e-13 -10.2786 0.731801 -0.0259123 2.12733e-10 3.92799e-13 -3.72125e-13 -2.22167 -0.733487 0.20892 -2.03217e-16 0.0 -3.88251e-19 -0.81078 -1.92439 -0.00361023 -0.00901409 -2.07859 -0.074301 -0.48368 3.99775 0.13611 2.03217e-16 0.0 3.88251e-19 -1.78667 -6.85419 0.17049 -0.00323689 6.85134 -0.0863747 0.513226 -0.0022953 -0.0582154
6.08884 82.6848 6.34544 0.2504 -6.2435 7.4681 -2.12124 1.25611 -1.54013 1.29376 -0.528418 -0.488902 -3.61012 -0.970865 -2.85215 4.45791 -0.949969 -4.27888 -0.0 0.0 0.0 -0.0 0.0 0.0 4.80967e-14 -3.59747e-14 -4.52088e-14 18.9836 4.36291 0.382879 -4.89685 -2.37871 7.47424 0.0469751 4.81081 0.667535 1.99098e-10 -5.79901e-10 1.81686e-10 3.46598e-10 -1.00465e-09 3.13349e-10 1.99104e-10 -5.79899e-10 1.81678e-10 7.73091 5.47488 0.417314 1.99098e-10 -5.79899e-10 1.81688e-10 2.90554 0.965183 0.102902 1.99106e-10 -5.799e-10 1.81685e-10 10.2786 0.731801 0.0259123 1.99094e-10 -5.79898e-10 1.81692e-10 2.22167 -0.733487 -0.20892 4.79762e-14 -3.59755e-14 -4.54324e-14 -21.1827 7.36494 -2.18863 4.56194 -2.14567 -7.04465 -0.0109154 2.31921 -0.324981 1.7098e-11 -7.72623e-10 -7.09696e-10 2.31904e-11 -1.33992e-09 -1.2259e-09 1.70876e-11 -7.72623e-10 -7.09682e-10 -7.73091 5.47488 -0.417314 1.70976e-11 -7.72623e-10 -7.09694e-10 -2.90554 0.965183 -0.102902 1.7089e-11 -7.72623e-10 -7.09691e-10 -10.2786 0.731801 -0.0259123 1.71035e-11 -7.72621e-10 -7.09696e-10 -2.22167 -0.733487 0.20892 -2.03217e-16 0.0 -3.88251e-19 -3.15799 -7.58488 0.969059 0.000749287 4.95129 0.0635685 -0.634305 0.987261 -2.27905 2.03217e-16 0.0 3.88251e-19 -0.342768 -8.60177 -0.824355 -0.0282861 10.2713 -0.187997 0.737494 -1.90772 5.15964
6.18892 82.6858 6.34213 0.3012 -6.3328 7.4862 -2.49165 2.58128 -3.12142 3.15422 -1.08799 -0.919749 -7.53507 -1.98887 -5.8714 9.01977 -1.93207 -8.80812 -0.0 0.0 0.0 -0.0 0.0 0.0 7.69853e-14 -7.77063e-14 -9.41432e-14 38.9836 8.97247 0.797281 -9.40219 -4.75639 15.4127 -0.0269268 9.89533 1.38918 1.8005e-10 -1.21683e-09 3.95158e-10 3.16932e-10 -2.10823e-09 6.81684e-10 1.80056e-10 -1.21683e-09 3.95151e-10 7.73091 5.47488 0.417314 1.8005e-10 -1.21683e-09 3.95162e-10 2.90554 0.965183 0.102902 1.80058e-10 -1.21683e-09 3.95158e-10 10.2786 0.731801 0.0259123 1.80048e-10 -1.21683e-09 3.95164e-10 2.22167 -0.733487 -0.20892 7.69474e-14 -7.77071e-14 -9.4342e-14 -42.9453 15.1257 -4.62611 8.82206 -4.31071 -14.5335 0.0062756 4.77993 -0.671606 -1.98428e-10 -1.62604e-09 -1.4932e-09 -3.56033e-10 -2.81994e-09 -2.57926e-09 -1.98443e-10 -1.62605e-09 -1.49318e-09 -7.73091 5.47488 -0.417314 -1.98428e-10 -1.62605e-09 -1.4932e-09 -2.90554 0.965183 -0.102902 -1.98436e-10 -1.62605e-09 -1.4932e-09 -10.2786 0.731801 -0.0259123 -1.98423e-10 -1.62604e-09 -1.4932e-09 -2.22167 -0.733487 0.20892 -2.03217e-16 0.0 -3.88251e-19 -5.42328 -13.5627 2.03271 -0.0263202 12.3869 0.213827 -1.06941 -2.18846 -4.83376 2.03217e-16 0.0 3.88251e-19 1.11664 -10.4433 -1.89814 -0.0411182 13.8829 -0.298531 1.35025 -3.86654 10.7016
6.27646 82.6872 6.34328 0.3985 -6.4586 7.488 -2.75428 3.763 -4.53617 4.79974 -1.58975 -1.30418 -11.1194 -2.88373 -8.56616 12.9516 -2.78641 -12.8503 -0.0 0.0 0.0 -0.0 0.0 0.0 1.00658e-13 -1.08007e-13 -1.35726e-13 56.7721 13.0864 1.17585 -12.8711 -6.65145 22.5634 -0.20461 14.4245 2.06053 1.7184e-10 -1.74055e-09 5.45803e-10 3.05065e-10 -3.01543e-09 9.41353e-10 1.71846e-10 -1.74055e-09 5.45796e-10 7.73091 5.47488 0.417314 1.71839e-10 -1.74055e-09 5.45808e-10 2.90554 0.965183 0.102902 1.71846e-10 -1.74055e-09 5.45803e-10 10.2786 0.731801 0.0259123 1.71839e-10 -1.74055e-09 5.45808e-10 2.22167 -0.733487 -0.20892 1.00689e-13 -1.08007e-13 -1.359e-13 -61.7521 21.9607 -7.02362 12.1354 -6.04862 -21.243 0.0466755 6.95673 -0.981371 -3.7416e-10 -2.31865e-09 -2.12834e-09 -6.65174e-10 -4.02111e-09 -3.67642e-09 -3.7418e-10 -2.31865e-09 -2.12832e-09 -7.73091 5.47488 -0.417314 -3.7416e-10 -2.31865e-09 -2.12834e-09 -2.90554 0.965183 -0.102902 -3.74168e-10 -2.31865e-09 -2.12834e-09 -10.2786 0.731801 -0.0259123 -3.74155e-10 -2.31865e-09 -2.12834e-09 -2.22167 -0.733487 0.20892 -2.03217e-16 0.0 -3.88251e-19 -7.24733 -18.8841 3.05345 -0.0852808 19.0107 0.358026 -1.69654 -4.99263 -7.13489 2.03217e-16 0.0 3.88251e-19 2.35913 -12.085 -2.84693 -0.0402986 17.111 -0.401197 2.21696 -5.53001 15.6615
